<?xml version="1.0" encoding="UTF-8" standalone="no"?>
<!-- Created with Inkscape (http://www.inkscape.org/) -->

<svg
   xmlns:dc="http://purl.org/dc/elements/1.1/"
   xmlns:cc="http://creativecommons.org/ns#"
   xmlns:rdf="http://www.w3.org/1999/02/22-rdf-syntax-ns#"
   xmlns:svg="http://www.w3.org/2000/svg"
   xmlns="http://www.w3.org/2000/svg"
   xmlns:sodipodi="http://sodipodi.sourceforge.net/DTD/sodipodi-0.dtd"
   xmlns:inkscape="http://www.inkscape.org/namespaces/inkscape"
   width="48.719749mm"
   height="48.457397mm"
   viewBox="0 0 48.719749 48.457397"
   version="1.1"
   id="svg8491"
   sodipodi:docname="move4.svg"
   inkscape:version="0.92.3 (2405546, 2018-03-11)">
  <defs
     id="defs8485" />
  <sodipodi:namedview
     id="base"
     pagecolor="#ffffff"
     bordercolor="#666666"
     borderopacity="1.0"
     inkscape:pageopacity="0.0"
     inkscape:pageshadow="2"
     inkscape:zoom="2.8284271"
     inkscape:cx="53.4251"
     inkscape:cy="94.906584"
     inkscape:document-units="mm"
     inkscape:current-layer="g9072"
     showgrid="false"
     inkscape:measure-start="0,0"
     inkscape:measure-end="0,0"
     inkscape:window-width="1920"
     inkscape:window-height="1025"
     inkscape:window-x="0"
     inkscape:window-y="0"
     inkscape:window-maximized="1"
     fit-margin-top="0"
     fit-margin-left="0"
     fit-margin-right="0"
     fit-margin-bottom="0" />
  <metadata
     id="metadata8488">
    <rdf:RDF>
      <cc:Work
         rdf:about="">
        <dc:format>image/svg+xml</dc:format>
        <dc:type
           rdf:resource="http://purl.org/dc/dcmitype/StillImage" />
        <dc:title></dc:title>
      </cc:Work>
    </rdf:RDF>
  </metadata>
  <g
     inkscape:label="Layer 1"
     inkscape:groupmode="layer"
     id="layer1"
     transform="translate(-32.510279,-16.769033)">
    <path
       style="fill:#000000;stroke-width:0.26458332"
       d=""
       id="path8506"
       inkscape:connector-curvature="0" />
    <path
       style="fill:#000000;stroke-width:0.26458332"
       d=""
       id="path8504"
       inkscape:connector-curvature="0" />
    <g
       id="g9072"
       style="fill:#65a5ff;fill-opacity:1;stroke:none;stroke-width:1;stroke-miterlimit:4;stroke-dasharray:none;stroke-opacity:1"
       transform="matrix(3.0831436,0,0,3.0831436,-169.21381,-135.87602)">
      <path
         style="fill:#ff6666;fill-opacity:1;stroke:none;stroke-width:11.65282631;stroke-miterlimit:4;stroke-dasharray:none;stroke-opacity:1"
         d="M 92.326172,0.00195313 C 77.201095,-0.06567988 62.174721,2.5488801 51.96875,7.8691406 33.331721,17.584416 18.979043,31.576228 10.443359,48.351562 -15.353174,99.049921 8.457402,159.27307 61.849609,178.37109 c 12.113137,4.33272 21.624881,5.46826 36.863282,4.40039 C 191.97952,176.23572 216.80086,50.889989 133.27539,8.2324219 122.67593,2.8191252 107.45125,0.06958609 92.326172,0.00195313 Z m -0.324219,17.66406287 8.732427,8.667968 8.73437,8.669922 -5.36719,0.0078 c -1.69687,0.0023 -2.72503,0.02124 -3.60156,0.04687 v 46.52539 h 46.57812 l 0.0293,-3.498046 0.0469,-5.517579 8.63281,8.632813 8.63086,8.634766 -8.66797,8.732421 -8.66992,8.734369 -0.008,-5.36718 c -0.002,-1.69688 -0.0212,-2.725155 -0.0469,-3.601564 H 100.5 v 46.578124 l 3.49805,0.0293 5.51757,0.0469 -8.63281,8.63281 -8.634763,8.63086 -8.732422,-8.66797 -8.734375,-8.66992 5.367188,-0.008 c 1.696872,-0.002 2.725036,-0.0212 3.601562,-0.0469 V 98.333984 H 37.171875 l -0.0293,3.498046 -0.04687,5.51758 -8.632812,-8.632813 -8.63086,-8.634766 8.667969,-8.732422 8.669922,-8.734375 0.0078,5.367188 c 0.0023,1.696873 0.02124,2.725037 0.04687,3.601562 H 83.75 V 35.005859 l -3.498047,-0.0293 -5.517578,-0.04687 8.632813,-8.632813 z"
         transform="matrix(0.08581609,0,0,0.08581609,65.428055,49.50955)"
         id="path8518"
         inkscape:connector-curvature="0" />
      <g
         aria-label="[]"
         style="font-style:normal;font-weight:normal;font-size:7.76111126px;line-height:1.25;font-family:sans-serif;letter-spacing:0px;word-spacing:0px;fill:#65a5ff;fill-opacity:1;stroke:none;stroke-width:1;stroke-miterlimit:4;stroke-dasharray:none;stroke-opacity:1"
         id="text9067" />
      <g
         id="g1033"
         transform="translate(16.491073,-0.07744631)"
         style="fill:#65a5ff;fill-opacity:1">
        <g
           id="g826"
           class=""
           transform="matrix(0.02978661,0,0,0.02978661,57.830452,40.062447)"
           style="fill:#65a5ff;fill-opacity:1" />
        <g
           aria-label=" "
           style="font-style:normal;font-weight:normal;font-size:3.43264365px;line-height:1.25;font-family:sans-serif;letter-spacing:0px;word-spacing:0px;fill:#65a5ff;fill-opacity:1;stroke:none;stroke-width:0.08581609"
           id="text9119" />
        <g
           aria-label=" "
           transform="rotate(90)"
           style="font-style:normal;font-weight:normal;font-size:3.43264365px;line-height:1.25;font-family:sans-serif;letter-spacing:0px;word-spacing:0px;fill:#65a5ff;fill-opacity:1;stroke:none;stroke-width:0.08581609;stroke-miterlimit:4;stroke-dasharray:none;stroke-opacity:1"
           id="text9119-3" />
        <g
           aria-label=" "
           transform="scale(-1)"
           style="font-style:normal;font-weight:normal;font-size:3.43264365px;line-height:1.25;font-family:sans-serif;letter-spacing:0px;word-spacing:0px;fill:#65a5ff;fill-opacity:1;stroke:none;stroke-width:0.08581609;stroke-miterlimit:4;stroke-dasharray:none;stroke-opacity:1"
           id="text9119-1" />
        <g
           aria-label=" "
           transform="rotate(-90)"
           style="font-style:normal;font-weight:normal;font-size:3.43264365px;line-height:1.25;font-family:sans-serif;letter-spacing:0px;word-spacing:0px;fill:#65a5ff;fill-opacity:1;stroke:none;stroke-width:0.08581609;stroke-miterlimit:4;stroke-dasharray:none;stroke-opacity:1"
           id="text9119-3-9" />
      </g>
    </g>
  </g>
</svg>
