<?xml version="1.0" encoding="UTF-8" standalone="no"?>
<!-- Created with Inkscape (http://www.inkscape.org/) -->

<svg
   xmlns:dc="http://purl.org/dc/elements/1.1/"
   xmlns:cc="http://creativecommons.org/ns#"
   xmlns:rdf="http://www.w3.org/1999/02/22-rdf-syntax-ns#"
   xmlns:svg="http://www.w3.org/2000/svg"
   xmlns="http://www.w3.org/2000/svg"
   xmlns:sodipodi="http://sodipodi.sourceforge.net/DTD/sodipodi-0.dtd"
   xmlns:inkscape="http://www.inkscape.org/namespaces/inkscape"
   width="48.719749mm"
   height="48.457397mm"
   viewBox="0 0 48.719749 48.457397"
   version="1.1"
   id="svg8491"
   sodipodi:docname="mouse.svg"
   inkscape:version="0.92.3 (2405546, 2018-03-11)">
  <defs
     id="defs8485" />
  <sodipodi:namedview
     id="base"
     pagecolor="#ffffff"
     bordercolor="#666666"
     borderopacity="1.0"
     inkscape:pageopacity="0.0"
     inkscape:pageshadow="2"
     inkscape:zoom="2.8"
     inkscape:cx="80.56977"
     inkscape:cy="115.15411"
     inkscape:document-units="mm"
     inkscape:current-layer="g9072"
     showgrid="false"
     inkscape:measure-start="287.946,919.196"
     inkscape:measure-end="295.268,913.571"
     inkscape:window-width="1920"
     inkscape:window-height="1025"
     inkscape:window-x="0"
     inkscape:window-y="0"
     inkscape:window-maximized="1"
     fit-margin-top="0"
     fit-margin-left="0"
     fit-margin-right="0"
     fit-margin-bottom="0" />
  <metadata
     id="metadata8488">
    <rdf:RDF>
      <cc:Work
         rdf:about="">
        <dc:format>image/svg+xml</dc:format>
        <dc:type
           rdf:resource="http://purl.org/dc/dcmitype/StillImage" />
        <dc:title></dc:title>
      </cc:Work>
    </rdf:RDF>
  </metadata>
  <g
     inkscape:label="Layer 1"
     inkscape:groupmode="layer"
     id="layer1"
     transform="translate(-32.510279,-16.769033)">
    <path
       style="fill:#000000;stroke-width:0.26458332"
       d=""
       id="path8506"
       inkscape:connector-curvature="0" />
    <path
       style="fill:#000000;stroke-width:0.26458332"
       d=""
       id="path8504"
       inkscape:connector-curvature="0" />
    <g
       id="g9072"
       style="fill:#65a5ff;fill-opacity:1;stroke:none;stroke-width:1;stroke-miterlimit:4;stroke-dasharray:none;stroke-opacity:1"
       transform="matrix(3.0831436,0,0,3.0831436,-169.21381,-135.87602)">
      <text
         xml:space="preserve"
         style="font-style:normal;font-weight:normal;font-size:3.43264365px;line-height:1.25;font-family:sans-serif;letter-spacing:0px;word-spacing:0px;fill:#000000;fill-opacity:1;stroke:none;stroke-width:0.08581609"
         x="72.948181"
         y="56.210945"
         id="text9119"><tspan
           sodipodi:role="line"
           id="tspan9117"
           x="72.948181"
           y="56.210945"
           style="stroke-width:0.08581609"> </tspan></text>
      <path
         style="opacity:1;fill:#65a5ff;fill-opacity:1;stroke:none;stroke-width:41.92432022;stroke-linecap:round;stroke-linejoin:round;stroke-miterlimit:4;stroke-dasharray:none;stroke-opacity:0.39215686;paint-order:markers fill stroke"
         d="M 92.326172,0.00195313 C 77.201095,-0.06567988 62.174721,2.5488797 51.96875,7.8691406 33.331721,17.584416 18.979043,31.576224 10.443359,48.351562 -15.353178,99.049921 8.4573968,159.27307 61.849609,178.37109 c 12.113137,4.33272 21.624881,5.46826 36.863282,4.40039 C 191.97952,176.23572 216.80086,50.889993 133.27539,8.2324219 122.67593,2.8191248 107.45125,0.06958613 92.326172,0.00195313 Z m 4.18164,27.16992187 h 6.529298 6.5293 l 0.92578,0.433594 c 0.63333,0.295282 1.4192,0.469622 2.48242,0.554687 1.37046,0.109537 1.58811,0.175444 1.83398,0.550782 0.22292,0.340262 0.43525,0.425781 1.05274,0.425781 0.61527,0 0.88781,0.109012 1.33398,0.535156 0.36567,0.349468 0.74536,0.537109 1.0918,0.537109 0.3497,0 0.59587,0.122357 0.72266,0.359375 0.10837,0.203575 0.52584,0.448508 0.95898,0.564453 0.47578,0.127249 0.82796,0.346584 0.92969,0.578126 0.0897,0.204973 0.35358,0.398663 0.58594,0.43164 0.23235,0.03263 0.46073,0.208519 0.50781,0.388672 0.0466,0.180036 0.34054,0.429653 0.65039,0.554688 0.51214,0.206721 2.08008,1.676286 2.08008,1.949218 0,0.06293 0.19946,0.219098 0.44336,0.34961 0.24389,0.130511 0.49047,0.382841 0.54687,0.560546 0.0559,0.177706 0.33414,0.543348 0.61719,0.810547 0.28305,0.267083 0.55737,0.661842 0.61133,0.876953 0.0536,0.215228 0.26147,0.432753 0.45898,0.484376 0.20241,0.05244 0.35742,0.242343 0.35742,0.435546 0,0.188543 0.20119,0.530555 0.44531,0.759766 0.24402,0.229211 0.49372,0.692208 0.55665,1.027344 0.0757,0.403188 0.2495,0.659318 0.51367,0.759765 0.31579,0.120024 0.42637,0.346095 0.52344,1.078125 0.0932,0.698704 0.20606,0.948389 0.46289,1.015625 0.25123,0.06526 0.36758,0.305497 0.44531,0.917969 0.21464,1.691093 0.28001,1.935227 0.61328,2.292969 0.56726,0.60886 0.75398,5.671894 0.69141,18.714844 l -0.0547,11.429687 -17.63281,0.08789 c -14.580405,0.07341 -17.647209,0.04791 -17.722661,-0.148438 -0.05011,-0.130744 -0.0918,-11.280912 -0.0918,-24.777343 z m -15.65039,0.06641 c 3.844733,-0.01282 6.763029,0.01431 6.484375,0.05859 -0.49373,0.07924 -0.499008,0.09095 -0.185547,0.4375 0.305887,0.338048 0.32733,0.339351 0.449219,0.03125 0.07108,-0.178288 0.113182,10.757349 0.0957,24.302734 -0.02097,16.26625 -0.09313,24.634708 -0.210938,24.644532 -0.09788,0.0082 -8.005843,-0.0066 -17.572265,-0.03125 -12.491224,-0.03263 -17.460141,-0.102415 -17.632813,-0.246094 -0.196933,-0.163373 -0.241399,-2.24018 -0.240234,-11.472656 8.16e-4,-6.200026 0.07708,-11.956196 0.167969,-12.791016 0.09089,-0.834808 0.219756,-2.539751 0.287109,-3.789063 0.106041,-1.972986 0.164246,-2.283856 0.445312,-2.373046 0.32558,-0.103711 0.41297,-0.373398 0.613282,-1.898438 0.07924,-0.603733 0.200631,-0.854461 0.443359,-0.917969 0.25275,-0.06642 0.361534,-0.321491 0.453125,-1.054687 0.09439,-0.753239 0.207519,-1.004925 0.507813,-1.136719 0.257644,-0.113032 0.436722,-0.415 0.541015,-0.912109 0.10371,-0.495711 0.26822,-0.773534 0.492188,-0.832032 0.198098,-0.05127 0.380201,-0.308858 0.443359,-0.625 0.06292,-0.315908 0.245495,-0.571308 0.443359,-0.623046 0.184698,-0.04778 0.412521,-0.289748 0.50586,-0.535157 0.154167,-0.405635 0.366841,-0.667504 1.691406,-2.08789 0.228978,-0.245525 0.464125,-0.585934 0.523438,-0.757813 0.05943,-0.171879 0.223652,-0.3125 0.365234,-0.3125 0.141698,0 0.447125,-0.222075 0.677734,-0.492187 0.23061,-0.270113 0.648622,-0.610083 0.929688,-0.75586 0.281066,-0.145776 0.550551,-0.370098 0.599609,-0.498047 0.04894,-0.128064 0.361487,-0.345706 0.69336,-0.484374 0.331872,-0.138669 0.603515,-0.369876 0.603515,-0.513672 0,-0.166053 0.262281,-0.305322 0.720703,-0.382813 0.4773,-0.0804 0.817578,-0.266452 1.003907,-0.550781 0.154749,-0.236203 0.419363,-0.429688 0.589843,-0.429688 0.548615,0 1.435547,-0.384746 1.435547,-0.623046 0,-0.294934 0.40215,-0.449219 1.175782,-0.449219 0.39538,0 0.75049,-0.142136 1.009765,-0.402344 0.317656,-0.318938 0.741759,-0.442063 2.056641,-0.599609 1.165166,-0.139718 1.767469,-0.298022 2.029297,-0.535157 0.350633,-0.317539 0.779562,-0.33977 7.363281,-0.361328 z m 11.46289,58.867188 c 19.799588,0.0069 39.527708,0.05392 39.634768,0.132812 0.20893,0.153468 0.0375,36.084145 -0.18555,38.792965 -0.10371,1.26297 -0.23198,1.82004 -0.5,2.18359 -0.26056,0.35343 -0.39,0.88923 -0.4668,1.93555 -0.0804,1.09537 -0.17773,1.48544 -0.40625,1.61328 -0.33769,0.18901 -0.67036,1.20858 -0.67187,2.0586 -7.1e-4,0.39945 -0.13063,0.64286 -0.44922,0.85156 -0.33642,0.22047 -0.44531,0.44749 -0.44531,0.92187 0,0.44514 -0.13323,0.75454 -0.45508,1.05274 -0.26673,0.24715 -0.50071,0.7054 -0.56445,1.10742 -0.0594,0.3772 -0.29189,0.85803 -0.51563,1.06836 -0.22373,0.21033 -0.4608,0.67103 -0.52734,1.02539 -0.0722,0.38198 -0.22421,0.64453 -0.375,0.64453 -0.13984,0 -0.40188,0.34236 -0.58203,0.75977 -0.18016,0.4174 -0.49787,0.91062 -0.70703,1.09765 -0.20917,0.18715 -0.38086,0.49214 -0.38086,0.67578 0,0.19181 -0.19079,0.40442 -0.44727,0.50196 -0.24552,0.0932 -0.44531,0.30141 -0.44531,0.46093 0,0.15942 -0.22012,0.51216 -0.49024,0.78321 -0.27011,0.27116 -0.97325,1.04236 -1.5625,1.71484 -0.58928,0.67249 -1.29476,1.42791 -1.5664,1.67774 -0.27163,0.24983 -0.95443,0.87618 -1.51758,1.39257 -0.56318,0.51646 -1.16132,0.98179 -1.32813,1.03516 -0.16686,0.0536 -0.35005,0.24846 -0.4082,0.43164 -0.0583,0.18318 -0.34414,0.41436 -0.63476,0.51563 -0.29063,0.10138 -0.52735,0.31193 -0.52735,0.46679 0,0.17072 -0.21299,0.32502 -0.54101,0.39063 -0.29762,0.0594 -0.68765,0.29186 -0.86524,0.51758 -0.17759,0.22571 -0.59662,0.48201 -0.93164,0.56836 -0.41344,0.10604 -0.62735,0.27497 -0.66406,0.52539 -0.0419,0.28514 -0.22274,0.39172 -0.79688,0.46875 -0.51995,0.0699 -0.84253,0.23779 -1.07617,0.55859 -0.22944,0.31498 -0.50129,0.45703 -0.86719,0.45703 -0.64894,0 -1.22265,0.28671 -1.22265,0.60938 0,0.15253 -0.33315,0.28302 -0.92383,0.36132 -0.58357,0.0769 -1.11602,0.28312 -1.44336,0.5586 -0.36159,0.30425 -0.73527,0.43554 -1.23633,0.43554 -0.71268,0 -1.93164,0.44977 -1.93164,0.7129 0,0.0757 -0.70313,0.19308 -1.5625,0.26171 -1.1946,0.0956 -1.70964,0.2236 -2.187498,0.54102 -0.594294,0.39491 -0.806504,0.4183 -4.28711,0.47656 -2.013398,0.0338 -5.117962,0.0216 -6.90039,-0.0273 v -0.002 c -2.852018,-0.0781 -3.285452,-0.12864 -3.613281,-0.42579 -0.264986,-0.24016 -0.850688,-0.39345 -2.027344,-0.52734 -0.93479,-0.10604 -1.76447,-0.29548 -1.90625,-0.43555 -0.371143,-0.36659 -1.024039,-0.57422 -1.800781,-0.57422 -0.470075,0 -0.853403,-0.13988 -1.207032,-0.4375 -0.327328,-0.27547 -0.857949,-0.48121 -1.441406,-0.55859 -0.590682,-0.0781 -0.923828,-0.20879 -0.923828,-0.36133 0,-0.30565 -0.564709,-0.60742 -1.134766,-0.60742 -0.630418,0 -1.009765,-0.17693 -1.009765,-0.4707 0,-0.28002 -0.697373,-0.60156 -1.306641,-0.60156 -0.230726,0 -0.466602,-0.15923 -0.570312,-0.38868 -0.09672,-0.21464 -0.416149,-0.46866 -0.708985,-0.56445 -0.292952,-0.0956 -0.680593,-0.362 -0.861328,-0.5918 -0.184814,-0.23503 -0.519284,-0.41797 -0.765625,-0.41797 -0.30274,0 -0.490078,-0.13858 -0.607422,-0.44726 -0.09439,-0.24821 -0.313316,-0.44531 -0.492187,-0.44531 -0.177007,0 -0.521587,-0.22208 -0.767578,-0.49219 -0.245992,-0.27011 -0.764566,-0.73265 -1.150391,-1.02734 -0.385825,-0.2947 -0.958912,-0.79595 -1.275391,-1.11524 -0.31649,-0.31917 -0.701535,-0.58008 -0.855468,-0.58008 -0.153934,0 -0.28125,-0.11757 -0.28125,-0.26172 0,-0.14403 -0.260908,-0.5354 -0.580079,-0.86914 -0.31917,-0.33373 -0.861331,-0.94804 -1.205078,-1.36523 -0.343758,-0.41717 -0.798588,-0.919 -1.011718,-1.11524 -0.213014,-0.19623 -0.435294,-0.54851 -0.494141,-0.7832 -0.06526,-0.25823 -0.239025,-0.42773 -0.439453,-0.42773 -0.223385,0 -0.36528,-0.17015 -0.435547,-0.52149 -0.05943,-0.29703 -0.252869,-0.56851 -0.449219,-0.63086 -0.222918,-0.0711 -0.41502,-0.38658 -0.542968,-0.89453 -0.126317,-0.50154 -0.318764,-0.82382 -0.535157,-0.89258 -0.205789,-0.0653 -0.383935,-0.34077 -0.451172,-0.69922 -0.06059,-0.32464 -0.310677,-0.77664 -0.554687,-1.00585 -0.272676,-0.25625 -0.44336,-0.61448 -0.44336,-0.92969 0,-0.30822 -0.17616,-0.68972 -0.443359,-0.95703 -0.244476,-0.24448 -0.487002,-0.64274 -0.537109,-0.88477 -0.05011,-0.24203 -0.13028,-0.636 -0.179688,-0.875 -0.04894,-0.239 -0.239158,-0.48298 -0.421875,-0.54101 -0.259042,-0.0827 -0.35441,-0.33922 -0.429687,-1.16993 -0.07225,-0.79437 -0.215041,-1.20661 -0.560547,-1.61718 -0.383495,-0.45575 -0.462891,-0.73206 -0.462891,-1.59766 0,-1.19792 -0.234382,-1.96094 -0.601562,-1.96094 -0.204274,0 -0.276534,-0.61111 -0.375,-3.16992 -0.06759,-1.7433 -0.19508,-3.85268 -0.285156,-4.6875 -0.08973,-0.83481 -0.1652,-8.44362 -0.166016,-16.9082 -8.62e-4,-9.085253 -0.06985,-15.569477 -0.167969,-15.828124 -0.150671,-0.396429 -0.112754,-0.448059 0.380859,-0.546874 0.392409,-0.07848 20.26291,-0.112359 40.0625,-0.105469 z"
         id="path823"
         inkscape:connector-curvature="0"
         transform="matrix(0.08581609,0,0,0.08581609,65.428055,49.50955)" />
    </g>
  </g>
</svg>
