<?xml version="1.0" encoding="UTF-8" standalone="no"?>
<!-- Created with Inkscape (http://www.inkscape.org/) -->

<svg
   xmlns:dc="http://purl.org/dc/elements/1.1/"
   xmlns:cc="http://creativecommons.org/ns#"
   xmlns:rdf="http://www.w3.org/1999/02/22-rdf-syntax-ns#"
   xmlns:svg="http://www.w3.org/2000/svg"
   xmlns="http://www.w3.org/2000/svg"
   xmlns:sodipodi="http://sodipodi.sourceforge.net/DTD/sodipodi-0.dtd"
   xmlns:inkscape="http://www.inkscape.org/namespaces/inkscape"
   width="48.719749mm"
   height="48.457397mm"
   viewBox="0 0 48.719749 48.457397"
   version="1.1"
   id="svg8491"
   sodipodi:docname="outsideRoom.svg"
   inkscape:version="0.92.3 (2405546, 2018-03-11)">
  <defs
     id="defs8485" />
  <sodipodi:namedview
     id="base"
     pagecolor="#ffffff"
     bordercolor="#666666"
     borderopacity="1.0"
     inkscape:pageopacity="0.0"
     inkscape:pageshadow="2"
     inkscape:zoom="1.979899"
     inkscape:cx="55.292642"
     inkscape:cy="74.419457"
     inkscape:document-units="mm"
     inkscape:current-layer="layer1"
     showgrid="false"
     inkscape:measure-start="0,0"
     inkscape:measure-end="0,0"
     inkscape:window-width="1920"
     inkscape:window-height="1025"
     inkscape:window-x="0"
     inkscape:window-y="0"
     inkscape:window-maximized="1"
     fit-margin-top="0"
     fit-margin-left="0"
     fit-margin-right="0"
     fit-margin-bottom="0" />
  <metadata
     id="metadata8488">
    <rdf:RDF>
      <cc:Work
         rdf:about="">
        <dc:format>image/svg+xml</dc:format>
        <dc:type
           rdf:resource="http://purl.org/dc/dcmitype/StillImage" />
        <dc:title />
      </cc:Work>
    </rdf:RDF>
  </metadata>
  <g
     inkscape:label="Layer 1"
     inkscape:groupmode="layer"
     id="layer1"
     transform="translate(-32.510279,-16.769033)">
    <path
       style="fill:#000000;stroke-width:0.26458332"
       d=""
       id="path8506"
       inkscape:connector-curvature="0" />
    <path
       style="fill:#000000;stroke-width:0.26458332"
       d=""
       id="path8504"
       inkscape:connector-curvature="0" />
    <g
       id="g9072"
       style="fill:#65a5ff;fill-opacity:1;stroke:none;stroke-width:1;stroke-miterlimit:4;stroke-dasharray:none;stroke-opacity:1"
       transform="matrix(3.0831436,0,0,3.0831436,-169.21381,-135.87602)">
      <path
         style="fill:#65a5ff;fill-opacity:1;stroke:none;stroke-width:11.65282631;stroke-miterlimit:4;stroke-dasharray:none;stroke-opacity:1"
         d="M 92.326172,0.00195313 C 77.201095,-0.06567988 62.174721,2.5488799 51.96875,7.8691406 33.331721,17.584416 18.979043,31.576226 10.443359,48.351562 -15.353176,99.049921 8.4573994,159.27307 61.849609,178.37109 c 12.113137,4.33272 21.624881,5.46826 36.863282,4.40039 C 191.97952,176.23572 216.80086,50.889991 133.27539,8.2324219 122.67593,2.819125 107.45125,0.06958611 92.326172,0.00195313 Z M 29.169922,43.173828 H 45.222656 115.13477 V 90.941406 138.70898 H 45.222656 29.103516 c -0.0068,-6.25004 7.65e-4,-12.49996 0,-18.75 h -0.05078 l 0.08984,-57.945308 h 0.002 c 0.0092,-6.279981 0.01593,-12.55986 0.02539,-18.839844 z m -0.02539,18.839844 c -0.02815,19.315207 -0.04338,38.630088 -0.04102,57.945308 H 45.134762 92.27734 L 92.232422,90.986328 92.1875,62.013672 H 45.134766 Z M 145.24609,75.818359 a 16.541249,16.541249 0 0 1 16.63086,16.421875 v 0.119141 a 16.541249,16.541249 0 0 1 -16.51172,16.541015 16.541249,16.541249 0 0 1 -16.57031,-16.482421 16.541249,16.541249 0 0 1 16.45117,-16.59961 z"
         transform="matrix(0.08581609,0,0,0.08581609,65.428055,49.50955)"
         id="path8518"
         inkscape:connector-curvature="0" />
      <g
         aria-label="[]"
         style="font-style:normal;font-weight:normal;font-size:7.76111126px;line-height:1.25;font-family:sans-serif;letter-spacing:0px;word-spacing:0px;fill:#65a5ff;fill-opacity:1;stroke:none;stroke-width:1;stroke-miterlimit:4;stroke-dasharray:none;stroke-opacity:1"
         id="text9067" />
      <text
         xml:space="preserve"
         style="font-style:normal;font-weight:normal;font-size:3.43264365px;line-height:1.25;font-family:sans-serif;letter-spacing:0px;word-spacing:0px;fill:#000000;fill-opacity:1;stroke:none;stroke-width:0.08581609"
         x="72.948181"
         y="56.210945"
         id="text9119"><tspan
           sodipodi:role="line"
           id="tspan9117"
           x="72.948181"
           y="56.210945"
           style="stroke-width:0.08581609"> </tspan></text>
    </g>
  </g>
</svg>
